<svg width="25" height="25" viewBox="0 0 25 25" fill="none" xmlns="http://www.w3.org/2000/svg">
<g clip-path="url(#clip0)">
<path d="M7.50506 16.4606H21.2801C22.842 16.4606 24.1163 15.1864 24.1163 13.6244V7.82875C24.1163 7.82361 24.1163 7.81333 24.1163 7.8082C24.1163 7.79278 24.1163 7.78251 24.1163 7.76709C24.1163 7.75682 24.1163 7.74654 24.1111 7.73626C24.1111 7.72599 24.106 7.71057 24.106 7.7003C24.106 7.69002 24.1009 7.67975 24.1009 7.66947C24.0957 7.65919 24.0957 7.64892 24.0906 7.6335C24.0854 7.62323 24.0854 7.61295 24.0803 7.60268C24.0752 7.5924 24.0752 7.58212 24.07 7.57185C24.0649 7.56157 24.0597 7.5513 24.0546 7.53588C24.0495 7.52561 24.0443 7.51533 24.0392 7.51019C24.0341 7.49992 24.0289 7.48964 24.0238 7.47936C24.0186 7.46909 24.0135 7.46395 24.0084 7.45367C24.0032 7.4434 23.993 7.43312 23.9878 7.42285C23.9827 7.41257 23.9775 7.40743 23.9673 7.39715C23.9621 7.38688 23.9518 7.38174 23.9467 7.37146C23.9416 7.36119 23.9313 7.35605 23.9262 7.34577C23.921 7.3355 23.9107 7.33036 23.9056 7.32522C23.8953 7.31495 23.8902 7.30981 23.8799 7.29953C23.8696 7.29439 23.8645 7.28412 23.8542 7.27898C23.844 7.27384 23.8337 7.26357 23.8234 7.25843C23.8131 7.25329 23.808 7.24815 23.7977 7.24301C23.7874 7.23788 23.7772 7.23274 23.7669 7.22246C23.7566 7.21732 23.7463 7.21219 23.7361 7.20705C23.7258 7.20191 23.7155 7.19677 23.7052 7.19163C23.6949 7.1865 23.6847 7.18136 23.6744 7.17622C23.6641 7.17108 23.6538 7.17108 23.6436 7.16594C23.6333 7.16081 23.6179 7.15567 23.6076 7.15567C23.5973 7.15567 23.587 7.15053 23.5819 7.15053C23.5665 7.14539 23.5562 7.14539 23.5408 7.14539C23.5357 7.14539 23.5305 7.14025 23.5203 7.14025L6.06127 4.73052V2.2951C6.06127 2.26941 6.06127 2.24372 6.05614 2.22317C6.05614 2.21803 6.05614 2.2129 6.051 2.20262C6.051 2.18721 6.04586 2.17179 6.04586 2.15638C6.04072 2.14096 6.04072 2.13069 6.03558 2.11527C6.03558 2.105 6.03045 2.09986 6.03045 2.08958C6.02531 2.07417 6.02017 2.05875 6.01503 2.04334C6.01503 2.0382 6.00989 2.02793 6.00989 2.02279C6.00476 2.00737 5.99962 1.9971 5.98934 1.98168C5.9842 1.97655 5.9842 1.96627 5.97907 1.96113C5.97393 1.95086 5.96879 1.94058 5.95851 1.9303C5.95338 1.92003 5.94824 1.91489 5.9431 1.90461C5.93796 1.89434 5.93282 1.8892 5.92769 1.87892C5.92255 1.86865 5.91227 1.85837 5.90713 1.8481C5.902 1.84296 5.89686 1.83782 5.89172 1.83268C5.88144 1.82241 5.87117 1.81213 5.86089 1.80185C5.85575 1.79672 5.85062 1.79158 5.84548 1.78644C5.8352 1.77616 5.82493 1.76589 5.80951 1.75561C5.80437 1.75047 5.7941 1.74534 5.78896 1.7402C5.77868 1.72992 5.76841 1.72478 5.75813 1.71451C5.74272 1.70423 5.7273 1.69396 5.71703 1.68882C5.71189 1.68368 5.70675 1.68368 5.70161 1.67854C5.68106 1.66827 5.65537 1.65799 5.63482 1.64771L1.8481 0.0549278C1.49358 -0.0940747 1.08767 0.0703419 0.938671 0.424865C0.789669 0.779388 0.954085 1.18529 1.30861 1.33429L4.66887 2.75239V5.89685V6.39524V10.2179V13.6347V17.9506C4.66887 19.3893 5.74785 20.5813 7.14026 20.7611C6.88849 21.1825 6.73949 21.6757 6.73949 22.1998C6.73949 23.7463 7.99831 25 9.53971 25C11.0811 25 12.3399 23.7412 12.3399 22.1998C12.3399 21.686 12.2012 21.1979 11.9546 20.7868H18.1921C17.9455 21.203 17.8068 21.686 17.8068 22.1998C17.8068 23.7463 19.0656 25 20.607 25C22.1484 25 23.4072 23.7412 23.4072 22.1998C23.4072 20.6584 22.1484 19.3996 20.607 19.3996H7.50506C6.70353 19.3996 6.05614 18.747 6.05614 17.9506V16.0701C6.47745 16.3168 6.97584 16.4606 7.50506 16.4606ZM10.9578 22.1946C10.9578 22.9756 10.3207 23.6076 9.54485 23.6076C8.76901 23.6076 8.13189 22.9705 8.13189 22.1946C8.13189 21.4188 8.76901 20.7817 9.54485 20.7817C10.3207 20.7817 10.9578 21.4137 10.9578 22.1946ZM22.0251 22.1946C22.0251 22.9756 21.388 23.6076 20.6121 23.6076C19.8363 23.6076 19.1992 22.9705 19.1992 22.1946C19.1992 21.4188 19.8363 20.7817 20.6121 20.7817C21.388 20.7817 22.0251 21.4137 22.0251 22.1946ZM21.2801 15.0734H7.50506C6.70353 15.0734 6.05614 14.4208 6.05614 13.6244V10.2077V6.38497V6.12806L22.729 8.42476V13.6193C22.729 14.426 22.0765 15.0734 21.2801 15.0734Z" fill="black"/>
</g>
<defs>
<clipPath id="clip0">
<rect width="25" height="25" fill="white"/>
</clipPath>
</defs>
</svg>
