<?xml version="1.0"?>
<svg xmlns="http://www.w3.org/2000/svg" height="512px" version="1.1" viewBox="1 -7 511.99997 511" width="512px">
<g id="surface1">
<path d="M 191.796875 443.332031 C 200.796875 443.332031 208.132812 436.035156 208.132812 426.996094 C 208.132812 418.011719 200.855469 410.652344 191.796875 410.652344 C 182.695312 410.652344 175.453125 418.046875 175.453125 426.996094 C 175.453125 436.054688 182.8125 443.332031 191.796875 443.332031 Z M 191.796875 443.332031 " style=" fill-rule:nonzero;fill-opacity:1;" stroke="#dc3e2a" fill="#dc3e2a"/>
<path d="M 368.222656 443.332031 C 377.246094 443.332031 384.558594 436.019531 384.558594 426.996094 C 384.558594 417.972656 377.246094 410.652344 368.222656 410.652344 C 359.257812 410.652344 351.886719 417.929688 351.886719 426.996094 C 351.886719 436.03125 359.226562 443.332031 368.222656 443.332031 Z M 368.222656 443.332031 " style=" fill-rule:nonzero;fill-opacity:1;" stroke="#dc3e2a" fill="#dc3e2a"/>
<path d="M 417.136719 0.5 C 364.832031 0.5 322.28125 43.050781 322.28125 95.363281 C 322.28125 106.773438 324.308594 117.710938 328.007812 127.839844 C 327.816406 127.839844 130.160156 127.851562 129.632812 127.851562 L 124.398438 103.433594 C 117.957031 73.335938 90.933594 51.492188 60.15625 51.492188 L 15.363281 51.492188 C 6.882812 51.492188 0 58.375 0 66.851562 C 0 75.34375 6.882812 82.214844 15.363281 82.214844 L 60.15625 82.214844 C 76.542969 82.214844 90.933594 93.847656 94.363281 109.867188 C 96.984375 122.101562 146.183594 351.722656 150.339844 371.121094 C 133.269531 383.808594 122.1875 404.136719 122.1875 426.996094 C 122.1875 465.378906 153.414062 496.605469 191.796875 496.605469 C 224.90625 496.605469 252.683594 473.378906 259.695312 442.359375 L 300.324219 442.359375 C 307.339844 473.378906 335.113281 496.605469 368.222656 496.605469 C 406.609375 496.605469 437.832031 465.378906 437.832031 426.996094 C 437.832031 388.613281 406.609375 357.386719 368.222656 357.386719 C 335.113281 357.386719 307.339844 380.613281 300.324219 411.632812 L 259.695312 411.632812 C 251.503906 375.402344 215.949219 351.6875 179.058594 358.554688 L 174.53125 337.386719 L 408.390625 337.386719 C 415.640625 337.386719 421.898438 332.324219 423.414062 325.238281 C 426.277344 311.875 451.070312 196.15625 453.933594 182.792969 C 488.023438 168.394531 512 134.628906 512 95.363281 C 512 43.050781 469.449219 0.5 417.136719 0.5 Z M 191.796875 388.109375 C 213.300781 388.109375 230.683594 405.621094 230.683594 426.996094 C 230.683594 448.339844 213.328125 465.882812 191.796875 465.882812 C 170.351562 465.882812 152.910156 448.429688 152.910156 426.996094 C 152.910156 405.609375 170.3125 388.109375 191.796875 388.109375 Z M 329.335938 426.996094 C 329.335938 405.457031 346.863281 388.109375 368.222656 388.109375 C 389.667969 388.109375 407.109375 405.550781 407.109375 426.996094 C 407.109375 448.429688 389.667969 465.882812 368.222656 465.882812 C 346.71875 465.882812 329.335938 448.371094 329.335938 426.996094 Z M 417.140625 158.574219 C 363.660156 158.574219 353.003906 111.476562 353.003906 95.363281 C 353.003906 60 381.773438 31.222656 417.136719 31.222656 C 452.5 31.222656 481.277344 60 481.277344 95.363281 C 481.277344 125.300781 459.070312 158.574219 417.140625 158.574219 Z M 316.578125 306.652344 L 247.335938 306.652344 L 242.019531 242.367188 L 321.890625 242.367188 Z M 239.480469 211.644531 L 235.097656 158.574219 L 328.816406 158.574219 L 324.433594 211.644531 Z M 204.273438 158.574219 L 208.65625 211.644531 L 147.585938 211.644531 L 136.21875 158.574219 Z M 167.945312 306.660156 L 154.171875 242.367188 L 211.195312 242.367188 L 216.511719 306.660156 Z M 395.976562 306.660156 L 347.402344 306.660156 L 352.71875 242.367188 L 409.75 242.367188 Z M 416.335938 211.644531 L 355.257812 211.644531 L 358.699219 170.035156 C 377.058594 184.429688 399.652344 191.175781 420.945312 190.136719 Z M 416.335938 211.644531 " style=" fill-rule:nonzero;fill-opacity:1;" stroke="#dc3e2a" fill="#dc3e2a"/>
<path d="M 454.9375 80.003906 L 432.496094 80.003906 L 432.496094 57.5625 C 432.496094 49.074219 425.625 42.203125 417.136719 42.203125 C 408.65625 42.203125 401.773438 49.074219 401.773438 57.5625 L 401.773438 80.003906 L 379.34375 80.003906 C 370.855469 80.003906 363.984375 86.875 363.984375 95.363281 C 363.984375 103.84375 370.855469 110.726562 379.34375 110.726562 L 401.773438 110.726562 C 401.773438 121.21875 401.773438 126.328125 401.773438 133.15625 C 401.773438 141.644531 408.65625 148.515625 417.136719 148.515625 C 425.625 148.515625 432.496094 141.644531 432.496094 133.15625 C 432.496094 126.363281 432.496094 121.257812 432.496094 110.726562 L 454.9375 110.726562 C 463.425781 110.726562 470.296875 103.84375 470.296875 95.363281 C 470.296875 86.875 463.425781 80.003906 454.9375 80.003906 Z M 454.9375 80.003906 " style=" fill-rule:nonzero;fill-opacity:1;" stroke="#dc3e2a" fill="#dc3e2a"/>
</g>
</svg>
