<svg width="22" height="21" viewBox="0 0 22 21" fill="none" xmlns="http://www.w3.org/2000/svg">
<path d="M21.9636 6.09945C21.6425 2.56485 19.1407 0.000423123 16.0097 0.000423123C13.9238 0.000423123 12.0139 1.12292 10.9392 2.92195C9.87428 1.09964 8.04267 0 5.99019 0C2.85965 0 0.357422 2.56443 0.0367098 6.09903C0.0113236 6.25516 -0.0927597 7.07682 0.223721 8.41679C0.679826 10.3495 1.73335 12.1075 3.26964 13.4995L10.9342 20.4549L18.7303 13.5C20.2665 12.1075 21.3201 10.3499 21.7762 8.41679C22.0927 7.07725 21.9886 6.25558 21.9636 6.09945ZM20.9524 8.22301C20.5361 9.98819 19.571 11.5964 18.1641 12.8708L10.9392 19.3168L3.83829 12.8725C2.42893 11.5956 1.46426 9.98777 1.0475 8.22259C0.747946 6.95455 0.871069 6.23823 0.871492 6.23358L0.877839 6.19084C1.15286 3.09415 3.30264 0.846206 5.99019 0.846206C7.97328 0.846206 9.719 2.06474 10.5474 4.02583L10.9371 4.94946L11.3268 4.02583C12.1421 2.09478 13.9801 0.846629 16.0101 0.846629C18.6972 0.846629 20.8475 3.09458 21.128 6.23146C21.1288 6.23823 21.2519 6.95497 20.9524 8.22301Z" fill="#DC3E2A"/>
</svg>
