<svg width="105" height="55" viewBox="0 0 105 55" fill="none" xmlns="http://www.w3.org/2000/svg">
<g clip-path="url(#clip0)">
<path d="M30.6811 5.29304C20.2727 3.99863 5.83918 5.73632 1.3531 16.9781C-0.526447 21.6593 -0.934273 28.3086 3.33903 32.0322C8.35706 36.3942 14.9709 35.5254 21.177 35.7736C21.3188 38.6286 22.17 41.6605 23.0388 44.3202C23.3402 45.26 24.4396 45.2954 24.9893 44.5685C26.0888 43.1145 26.5674 41.2347 27.0284 39.497C27.2589 38.6105 27.8971 37.2274 27.8441 36.1812C27.9682 36.1812 28.0746 36.1812 28.2166 36.1281C36.5504 33.0605 48.4659 36.0573 49.8844 24.3366C51.2497 13.1836 40.2741 6.48087 30.6811 5.29304ZM46.7282 27.9183C44.1216 33.8052 32.8089 31.9966 27.6313 33.9648C27.0816 34.1776 26.8688 34.6741 26.8867 35.1353C25.5921 35.3658 25.4503 36.9792 25.1843 38.061C24.9361 39.0362 24.7056 40.0646 24.3687 41.0574C23.8013 38.7878 23.3225 36.4827 22.4005 34.3904C22.1877 33.9116 21.6025 34.0003 21.3188 34.3372C17.7193 33.5038 14.2262 33.4506 10.5735 32.9364C-0.260473 31.4471 1.33537 19.5136 6.37113 13.4671C12.1339 6.5518 23.8367 6.35675 31.9402 7.72208C41.1427 9.28264 51.3563 17.4567 46.7282 27.9183Z" fill="#EA882D"/>
<path d="M16.0171 16.18C15.7334 15.4176 14.705 15.1871 14.2439 15.9495C13.3574 17.4212 13.6056 19.7618 13.5169 21.4108C13.4638 22.3152 13.3928 23.2904 13.3396 24.2656C12.4353 24.4075 11.5487 24.4784 10.6267 24.5493C10.6267 23.8223 10.609 23.0953 10.609 22.3684C10.609 21.1803 10.6622 19.9746 10.7154 18.7866C10.7331 18.2724 10.7863 17.7581 10.8749 17.2439C11.0168 16.4815 11.1941 16.6943 10.7154 16.9248C11.3182 16.6233 11.3537 15.5772 10.7154 15.2757C6.93854 13.5735 8.51665 27.2091 8.64077 28.929C8.72942 30.1702 10.5026 30.1702 10.5558 28.929C10.609 28.0245 10.609 27.138 10.609 26.2338C11.4955 26.287 12.3999 26.3048 13.3042 26.2693C13.3396 27.2445 13.4637 28.1843 13.7475 29.0532C13.8538 29.3899 14.1375 29.7445 14.5099 29.8156C14.8823 29.8864 15.2901 29.8688 15.5915 29.6383C15.8043 29.4787 15.822 29.2482 15.7334 29.0884C15.9284 28.3971 15.7866 27.7054 15.7511 26.9254C15.7157 25.4182 15.7689 23.8933 15.8398 22.3861C15.9816 20.5243 16.6909 17.9532 16.0171 16.18Z" fill="#EA882D"/>
<path d="M22.1877 16.3574C22.17 16.3219 22.1345 16.2864 22.1168 16.251C21.8153 15.8432 21.4784 15.7368 20.9997 15.79C20.4323 15.8609 19.8471 15.8786 19.262 15.9141C18.9783 15.7545 18.5705 15.8432 18.4286 16.1623C18.1626 16.3928 18.1094 16.7829 18.2336 17.0844C17.5952 21.074 17.542 25.2586 17.5066 29.2658C17.5066 29.9218 18.0208 30.3119 18.6059 30.3651C20.1131 30.5247 22.1168 30.241 21.9926 28.2905C21.9572 27.6878 21.3366 27.2621 20.7692 27.5813C20.3436 27.8295 20.0599 28.0068 19.7407 28.0955C19.7585 27.3862 19.7762 26.677 19.8117 25.9677C20.0599 26.0032 20.3081 26.0209 20.5387 26.0564C21.0351 26.1273 21.372 26.0032 21.6735 25.5953L21.6912 25.5774C21.8685 25.3469 21.8685 24.8504 21.6912 24.6201L21.6735 24.6024C21.372 24.2123 21.0351 24.0704 20.5387 24.1413C20.3259 24.1768 20.0954 24.1945 19.8649 24.2123C19.9358 21.9958 19.9535 19.7794 19.7053 17.6161C20.1308 17.6339 20.5741 17.6516 20.9819 17.7225C21.4607 17.7934 21.8153 17.6693 22.099 17.2615C22.1168 17.226 22.1522 17.1906 22.17 17.1551C22.3295 16.9602 22.3295 16.5701 22.1877 16.3574Z" fill="#EA882D"/>
<path d="M27.5426 27.3509C27.0816 27.2091 26.6029 27.1381 26.1241 27.0495C26.0534 23.6275 25.8228 20.1521 25.4148 16.7652C25.3084 15.8431 24.085 15.8431 23.9786 16.7652C23.5708 20.4711 23.8722 24.2834 23.8722 27.9893C23.8722 28.5033 24.2268 28.9466 24.7056 29.0884C25.6631 29.3544 26.5497 29.5672 27.5249 29.2837C28.5179 29 28.4826 27.6348 27.5426 27.3509Z" fill="#EA882D"/>
<path d="M32.5608 28.1134C32.3302 28.2199 32.1353 28.3616 31.9402 28.4503C31.958 24.5848 32.0642 20.6661 31.1423 16.8893C30.965 16.1446 29.7945 16.3042 29.8125 17.0666C29.9364 21.2513 29.7415 25.4005 29.6704 29.5851C29.6704 30.117 30.0251 30.507 30.5038 30.6843C31.9223 31.2162 33.2522 30.915 33.8907 29.4431C34.2806 28.5567 33.5006 27.6701 32.5608 28.1134Z" fill="#EA882D"/>
<path d="M39.1391 17.4922C38.4475 16.5524 37.0113 17.1376 37.0467 18.0596C37.0113 18.0596 36.9935 18.0596 36.9402 18.0596C36.4437 18.0419 36.2132 18.4852 36.0004 18.8398C35.309 20.0278 34.972 21.535 34.6528 22.8471C34.1386 24.9572 33.5357 28.4858 35.8053 29.7977C38.4296 31.3228 40.1673 27.8827 40.451 25.879C40.8236 23.3968 40.6994 19.6022 39.1391 17.4922ZM38.0929 26.4289C37.9865 26.8722 37.2597 28.4503 36.7098 27.5814C35.8233 26.1629 36.7277 23.2906 37.0645 21.8187C37.2418 21.0562 37.437 20.2938 37.6496 19.5313C37.6496 19.5136 37.6496 19.4959 37.6675 19.4781C38.164 20.7193 38.2881 22.2265 38.3413 23.4677C38.3943 24.4431 38.3236 25.4537 38.0929 26.4289Z" fill="#EA882D"/>
</g>
<path d="M37.7188 44.085H32.1729V48.6201H38.6152V50H30.4854V37.2031H38.5273V38.5918H32.1729V42.7051H37.7188V44.085ZM44.8906 42.1074L47.958 37.2031H49.9443L45.9014 43.5488L50.041 50H48.0371L44.8906 45.0078L41.7266 50H39.7314L43.8799 43.5488L39.8281 37.2031H41.8057L44.8906 42.1074ZM53.6885 44.9902V50H52.001V37.2031H56.7207C58.1211 37.2031 59.2168 37.5605 60.0078 38.2754C60.8047 38.9902 61.2031 39.9365 61.2031 41.1143C61.2031 42.3564 60.8135 43.3145 60.0342 43.9883C59.2607 44.6562 58.1504 44.9902 56.7031 44.9902H53.6885ZM53.6885 43.6104H56.7207C57.623 43.6104 58.3145 43.3994 58.7949 42.9775C59.2754 42.5498 59.5156 41.9346 59.5156 41.1318C59.5156 40.3701 59.2754 39.7607 58.7949 39.3037C58.3145 38.8467 57.6553 38.6094 56.8174 38.5918H53.6885V43.6104ZM68.0498 44.8232H65.0439V50H63.3477V37.2031H67.584C69.0254 37.2031 70.1328 37.5312 70.9062 38.1875C71.6855 38.8438 72.0752 39.7988 72.0752 41.0527C72.0752 41.8496 71.8584 42.5439 71.4248 43.1357C70.9971 43.7275 70.3994 44.1699 69.6318 44.4629L72.6377 49.8945V50H70.8271L68.0498 44.8232ZM65.0439 43.4434H67.6367C68.4746 43.4434 69.1396 43.2266 69.6318 42.793C70.1299 42.3594 70.3789 41.7793 70.3789 41.0527C70.3789 40.2617 70.1416 39.6553 69.667 39.2334C69.1982 38.8115 68.5186 38.5977 67.6279 38.5918H65.0439V43.4434ZM81.6816 44.085H76.1357V48.6201H82.5781V50H74.4482V37.2031H82.4902V38.5918H76.1357V42.7051H81.6816V44.085ZM88.4492 44.2959C87.002 43.8799 85.9473 43.3701 85.2852 42.7666C84.6289 42.1572 84.3008 41.4072 84.3008 40.5166C84.3008 39.5088 84.7021 38.6768 85.5049 38.0205C86.3135 37.3584 87.3623 37.0273 88.6514 37.0273C89.5303 37.0273 90.3125 37.1973 90.998 37.5371C91.6895 37.877 92.2227 38.3457 92.5977 38.9434C92.9785 39.541 93.1689 40.1943 93.1689 40.9033H91.4727C91.4727 40.1299 91.2266 39.5234 90.7344 39.084C90.2422 38.6387 89.5479 38.416 88.6514 38.416C87.8193 38.416 87.1689 38.6006 86.7002 38.9697C86.2373 39.333 86.0059 39.8398 86.0059 40.4902C86.0059 41.0117 86.2256 41.4541 86.665 41.8174C87.1104 42.1748 87.8633 42.5029 88.9238 42.8018C89.9902 43.1006 90.8223 43.4316 91.4199 43.7949C92.0234 44.1523 92.4688 44.5713 92.7559 45.0518C93.0488 45.5322 93.1953 46.0977 93.1953 46.748C93.1953 47.7852 92.791 48.6172 91.9824 49.2441C91.1738 49.8652 90.0928 50.1758 88.7393 50.1758C87.8604 50.1758 87.04 50.0088 86.2783 49.6748C85.5166 49.335 84.9277 48.8721 84.5117 48.2861C84.1016 47.7002 83.8965 47.0352 83.8965 46.291H85.5928C85.5928 47.0645 85.877 47.6768 86.4453 48.1279C87.0195 48.5732 87.7842 48.7959 88.7393 48.7959C89.6299 48.7959 90.3125 48.6143 90.7871 48.251C91.2617 47.8877 91.499 47.3926 91.499 46.7656C91.499 46.1387 91.2793 45.6553 90.8398 45.3154C90.4004 44.9697 89.6035 44.6299 88.4492 44.2959ZM99.1367 44.2959C97.6895 43.8799 96.6348 43.3701 95.9727 42.7666C95.3164 42.1572 94.9883 41.4072 94.9883 40.5166C94.9883 39.5088 95.3896 38.6768 96.1924 38.0205C97.001 37.3584 98.0498 37.0273 99.3389 37.0273C100.218 37.0273 101 37.1973 101.686 37.5371C102.377 37.877 102.91 38.3457 103.285 38.9434C103.666 39.541 103.856 40.1943 103.856 40.9033H102.16C102.16 40.1299 101.914 39.5234 101.422 39.084C100.93 38.6387 100.235 38.416 99.3389 38.416C98.5068 38.416 97.8564 38.6006 97.3877 38.9697C96.9248 39.333 96.6934 39.8398 96.6934 40.4902C96.6934 41.0117 96.9131 41.4541 97.3525 41.8174C97.7979 42.1748 98.5508 42.5029 99.6113 42.8018C100.678 43.1006 101.51 43.4316 102.107 43.7949C102.711 44.1523 103.156 44.5713 103.443 45.0518C103.736 45.5322 103.883 46.0977 103.883 46.748C103.883 47.7852 103.479 48.6172 102.67 49.2441C101.861 49.8652 100.78 50.1758 99.4268 50.1758C98.5479 50.1758 97.7275 50.0088 96.9658 49.6748C96.2041 49.335 95.6152 48.8721 95.1992 48.2861C94.7891 47.7002 94.584 47.0352 94.584 46.291H96.2803C96.2803 47.0645 96.5645 47.6768 97.1328 48.1279C97.707 48.5732 98.4717 48.7959 99.4268 48.7959C100.317 48.7959 101 48.6143 101.475 48.251C101.949 47.8877 102.187 47.3926 102.187 46.7656C102.187 46.1387 101.967 45.6553 101.527 45.3154C101.088 44.9697 100.291 44.6299 99.1367 44.2959Z" fill="#DC3E2A"/>
<defs>
<clipPath id="clip0">
<rect width="50" height="50" fill="white"/>
</clipPath>
</defs>
</svg>
